<svg id="calendar" xmlns="http://www.w3.org/2000/svg" width="20.117" height="20.117" viewBox="0 0 20.117 20.117">
  <path id="Path_123" data-name="Path 123" d="M17.812,61.109H2.305A2.307,2.307,0,0,1,0,58.8V44.973a2.307,2.307,0,0,1,2.305-2.3H17.812a2.307,2.307,0,0,1,2.305,2.3V58.8A2.307,2.307,0,0,1,17.812,61.109ZM2.305,43.925a1.049,1.049,0,0,0-1.048,1.048V58.8a1.049,1.049,0,0,0,1.048,1.048H17.812A1.049,1.049,0,0,0,18.86,58.8V44.973a1.049,1.049,0,0,0-1.048-1.048Zm0,0" transform="translate(0 -40.991)" fill="#a2a2a2"/>
  <path id="Path_124" data-name="Path 124" d="M19.489,171.925H.629a.629.629,0,0,1,0-1.257h18.86a.629.629,0,0,1,0,1.257Zm0,0" transform="translate(0 -163.962)" fill="#a2a2a2"/>
  <path id="Path_125" data-name="Path 125" d="M107.3,5.029a.629.629,0,0,1-.629-.629V.629a.629.629,0,0,1,1.257,0V4.4A.629.629,0,0,1,107.3,5.029Zm0,0" transform="translate(-102.477)" fill="#a2a2a2"/>
  <path id="Path_126" data-name="Path 126" d="M373.961,5.029a.629.629,0,0,1-.629-.629V.629a.629.629,0,0,1,1.257,0V4.4A.629.629,0,0,1,373.961,5.029Zm0,0" transform="translate(-358.663)" fill="#a2a2a2"/>
</svg>
