<svg id="Google-_" data-name="Google-+" xmlns="http://www.w3.org/2000/svg" width="48" height="48" viewBox="0 0 48 48">
  <path id="back" d="M0,24A24,24,0,1,1,24,48,24,24,0,0,1,0,24Z" fill="#dc4e41"/>
  <path id="Combined-Shape" d="M0,7.6A7.613,7.613,0,0,1,7.637,0a7.337,7.337,0,0,1,5.116,1.987L10.68,3.974A4.311,4.311,0,0,0,7.637,2.8a4.8,4.8,0,0,0,0,9.6,4.119,4.119,0,0,0,4.331-3.28H7.637V6.514h7.211a6.941,6.941,0,0,1,.12,1.259A7.026,7.026,0,0,1,7.637,15.2,7.613,7.613,0,0,1,0,7.6Zm19.636,3.257V8.686H17.455V6.514h2.182V4.343h2.182V6.514H24V8.686H21.818v2.171Z" transform="translate(12 16.8)" fill="#fff"/>
</svg>
