<svg xmlns="http://www.w3.org/2000/svg" width="19.705" height="18.392" viewBox="0 0 19.705 18.392">
  <g id="like" transform="translate(-33.182 -99.007)">
    <g id="Group_275" data-name="Group 275" transform="translate(33.182 105.575)">
      <g id="Group_274" data-name="Group 274" transform="translate(0 0)">
        <path id="Path_203" data-name="Path 203" d="M36.466,262.219H33.839a.657.657,0,0,0-.657.657v10.51a.657.657,0,0,0,.657.657h2.627a.657.657,0,0,0,.657-.657v-10.51A.657.657,0,0,0,36.466,262.219Z" transform="translate(-33.182 -262.219)" fill="#a4a4a4"/>
      </g>
    </g>
    <g id="Group_277" data-name="Group 277" transform="translate(38.437 99.007)">
      <g id="Group_276" data-name="Group 276" transform="translate(0 0)">
        <path id="Path_204" data-name="Path 204" d="M178.19,107.317a2.066,2.066,0,0,0-2.093-1.741h-5.121a11.341,11.341,0,0,0,.658-3.884,2.735,2.735,0,0,0-2.742-2.685h-.542a.657.657,0,0,0-.657.657c0,1.519-.591,4.261-1.707,5.376a7.275,7.275,0,0,1-2.234,1.443v9.856a15.344,15.344,0,0,0,5.418,1.059h4.3a2,2,0,0,0,1.97-2.7,1.971,1.971,0,0,0,1.314-2.627,1.972,1.972,0,0,0,.949-3.215A1.966,1.966,0,0,0,178.19,107.317Z" transform="translate(-163.752 -99.007)" fill="#a4a4a4"/>
      </g>
    </g>
  </g>
</svg>
