<svg xmlns="http://www.w3.org/2000/svg" width="16" height="16" viewBox="0 0 16 16">
  <g id="Group_34" data-name="Group 34" transform="translate(-0.406 -0.378)">
    <rect id="Rectangle_36" data-name="Rectangle 36" width="16" height="16" transform="translate(0.406 0.378)" fill="none"/>
    <path id="Union_2" data-name="Union 2" d="M14.41,54.072c-1.4,0-1.926-1.6-2-3h0v-7c0-1.4.6-2.927,2-3h12c1.4.073,2,1.6,2,3v7h0c-.074,1.4-.6,3-2,3Zm-1-3c0,.723.277,1,1,1h12c.723,0,1-.277,1-1v-7l-6,3c-.416.261-.51,1-1,1s-.583-.739-1-1l-6-3v7Zm6-5a2.6,2.6,0,0,0,2,0l6-4c-.222-.161-.725,0-1,0h-12c-.275,0-.777-.161-1,0Z" transform="translate(-12.003 -38.694)" fill="#fff"/>
  </g>
</svg>
