<svg xmlns="http://www.w3.org/2000/svg" width="22.319" height="22.318" viewBox="0 0 22.319 22.318">
  <g id="Group_31" data-name="Group 31" transform="translate(295.215 12.215)">
    <rect id="Rectangle_31" data-name="Rectangle 31" width="22.112" height="22.112" transform="translate(-295.215 -12.215)" fill="none"/>
    <g id="phone" transform="translate(-295.125 -12.124)">
      <g id="Group_32" data-name="Group 32" transform="translate(0 0)">
        <g id="Group_31-2" data-name="Group 31">
          <path id="Path_15" data-name="Path 15" d="M22.645,18.165l-4.5-3a1.313,1.313,0,0,0-1.758.286l-1.311,1.685a.56.56,0,0,1-.718.151l-.249-.137a15.066,15.066,0,0,1-3.926-3.084A15.127,15.127,0,0,1,7.1,10.139L6.963,9.89a.561.561,0,0,1,.148-.721l1.684-1.31A1.314,1.314,0,0,0,9.081,6.1l-3-4.5a1.306,1.306,0,0,0-1.761-.4L2.438,2.335a2.654,2.654,0,0,0-1.21,1.571c-.677,2.468-.168,6.729,6.108,13,4.992,4.992,8.708,6.334,11.263,6.334a6.563,6.563,0,0,0,1.741-.227,2.651,2.651,0,0,0,1.571-1.21l1.131-1.88A1.307,1.307,0,0,0,22.645,18.165ZM22.4,19.547l-1.129,1.881a1.914,1.914,0,0,1-1.13.876c-2.279.626-6.26.107-12.285-5.917S1.317,6.381,1.942,4.1A1.917,1.917,0,0,1,2.819,2.97L4.7,1.842a.567.567,0,0,1,.764.172L7.094,4.46,8.462,6.512a.57.57,0,0,1-.124.763L6.654,8.585a1.3,1.3,0,0,0-.343,1.664l.134.243a15.714,15.714,0,0,0,3.211,4.1,15.73,15.73,0,0,0,4.1,3.21l.243.134a1.3,1.3,0,0,0,1.664-.343l1.31-1.684a.57.57,0,0,1,.763-.124l4.5,3A.566.566,0,0,1,22.4,19.547Z" transform="translate(-1 -1.018)" fill="#ed1c24"/>
          <path id="Path_16" data-name="Path 16" d="M282.965,70a5.73,5.73,0,0,1,5.723,5.723.337.337,0,0,0,.673,0,6.4,6.4,0,0,0-6.4-6.4.337.337,0,1,0,0,.673Z" transform="translate(-269.492 -66.629)" fill="#ed1c24"/>
          <path id="Path_17" data-name="Path 17" d="M282.965,121.2a3.708,3.708,0,0,1,3.7,3.7.337.337,0,1,0,.673,0,4.382,4.382,0,0,0-4.377-4.377.337.337,0,1,0,0,.673Z" transform="translate(-270.064 -115.193)" fill="#ed1c24"/>
          <path id="Path_18" data-name="Path 18" d="M282.965,172.4a1.685,1.685,0,0,1,1.683,1.683.337.337,0,1,0,.673,0,2.359,2.359,0,0,0-2.357-2.357.337.337,0,1,0,0,.673Z" transform="translate(-270.232 -164.21)" fill="#ed1c24"/>
        </g>
      </g>
    </g>
  </g>
</svg>
