<svg xmlns="http://www.w3.org/2000/svg" width="16.82" height="16.427" viewBox="0 0 16.82 16.427">
  <path id="Union_2" data-name="Union 2" d="M10.193,14.964a10.386,10.386,0,0,1-6.881-3.306h0A10.384,10.384,0,0,1,0,4.776a4.436,4.436,0,0,1,1.177-3.2h0c.014-.015.026-.032.041-.047h0l.022-.02.016-.014a2.081,2.081,0,0,1,2.888.1A5.079,5.079,0,0,1,5.486,3.608,2.255,2.255,0,0,1,4.83,5.924l0,0-.734.74A11.084,11.084,0,0,0,5.9,9h0l.071.071h0a11.088,11.088,0,0,0,2.332,1.8l.74-.735,0,0a2.256,2.256,0,0,1,2.316-.657,5.1,5.1,0,0,1,2.014,1.338,2.082,2.082,0,0,1,.1,2.889l-.014.015-.02.022h0l-.048.04h0a4.438,4.438,0,0,1-3.012,1.181Q10.289,14.968,10.193,14.964ZM4.086,10.883l.037.034h0A9.268,9.268,0,0,0,10.2,13.87a3.382,3.382,0,0,0,2.463-.888l0,0a.983.983,0,0,0-.05-1.37c-1.469-1.415-2.162-1.314-2.8-.688L8.789,11.934a.549.549,0,0,1-.608.112A11.081,11.081,0,0,1,5.2,9.847v0l-.071-.071,0,0a11.05,11.05,0,0,1-2.2-2.986.546.546,0,0,1,.111-.607L4.049,5.157c.626-.642.726-1.335-.688-2.8A.985.985,0,0,0,1.99,2.3l0,0A3.379,3.379,0,0,0,1.1,4.77a9.265,9.265,0,0,0,2.951,6.076h0ZM9.814,6.7A1.575,1.575,0,0,0,8.242,5.13a.314.314,0,1,1,0-.629,2.2,2.2,0,0,1,2.2,2.2.314.314,0,1,1-.629,0Zm2.044-.152A3.462,3.462,0,0,0,8.4,3.092a.315.315,0,0,1,0-.63A4.093,4.093,0,0,1,12.486,6.55a.314.314,0,1,1-.629,0Zm2.421-.576A5.351,5.351,0,0,0,8.933.629a.314.314,0,0,1,0-.629,5.982,5.982,0,0,1,5.975,5.975.315.315,0,1,1-.63,0Z" transform="translate(0.501 0.5)" fill="#fff" stroke="rgba(0,0,0,0)" stroke-miterlimit="10" stroke-width="1"/>
</svg>
