<svg id="tap" xmlns="http://www.w3.org/2000/svg" width="12.067" height="16.072" viewBox="0 0 12.067 16.072">
  <path id="Path_119" data-name="Path 119" d="M11.052,40.492H11.03a1.239,1.239,0,0,0-.835.318,1.3,1.3,0,0,0-1.21-.883,1.255,1.255,0,0,0-.9.386,1.284,1.284,0,0,0-1.146-.733H6.918a1.177,1.177,0,0,0-.738.246V36.712a1.336,1.336,0,0,0-1.3-1.364,1.334,1.334,0,0,0-1.295,1.363l-.006,6.177-.35-.425a1.763,1.763,0,0,0-1.246-.654,1.735,1.735,0,0,0-1.3.46l-.3.252a.27.27,0,0,0-.067.333l2.957,5.684a3.049,3.049,0,0,0,2.685,1.687H9.289v0a3.173,3.173,0,0,0,3.061-3.267c0-.806,0-1.406,0-1.893,0-1.3,0-1.782,0-3.217a1.327,1.327,0,0,0-1.294-1.354Zm.752,4.569c0,.487,0,1.09,0,1.9a2.64,2.64,0,0,1-2.529,2.728H5.957a2.51,2.51,0,0,1-2.205-1.4L.9,42.8l.141-.118.01-.009a1.2,1.2,0,0,1,.9-.324,1.227,1.227,0,0,1,.865.458l.828,1.007a.27.27,0,0,0,.479-.171l0-6.931a.8.8,0,0,1,.757-.823.8.8,0,0,1,.757.824v4.179c0,.015,0,.029,0,.044s0,.013,0,.019V42.74a.27.27,0,1,0,.541,0V40.9a.758.758,0,0,1,.738-.78h.024a.789.789,0,0,1,.759.815V42.57a.27.27,0,1,0,.541,0V41.287a.747.747,0,1,1,1.487,0V42.5a.27.27,0,1,0,.541,0v-.655a.785.785,0,0,1,.76-.81h.023a.784.784,0,0,1,.751.814c0,1.433,0,1.913,0,3.214Zm0,0" transform="translate(-0.284 -34.153)" fill="#fff"/>
  <path id="Path_120" data-name="Path 120" d="M64.88,2.676a.27.27,0,0,0,.27-.27,1.874,1.874,0,0,1,3.747,0,.27.27,0,0,0,.541,0,2.414,2.414,0,0,0-4.828,0A.27.27,0,0,0,64.88,2.676Zm0,0" transform="translate(-62.436)" fill="#fff"/>
</svg>
