<svg id="Group_249" data-name="Group 249" xmlns="http://www.w3.org/2000/svg" width="54.806" height="17.78" viewBox="0 0 54.806 17.78">
  <g id="Group_248" data-name="Group 248" transform="translate(0)">
    <path id="Path_127" data-name="Path 127" d="M254.375,173.255H249.9l2.795-17.177h4.473Z" transform="translate(-230.616 -155.772)" fill="#0066b2"/>
    <path id="Path_128" data-name="Path 128" d="M239,156.079l-4.263,11.814-.505-2.544h0l-1.5-7.724a1.913,1.913,0,0,0-2.121-1.547h-7.048l-.082.29a16.724,16.724,0,0,1,4.679,1.963l3.884,14.922H236.7l7.115-17.176Z" transform="translate(-223.477 -155.772)" fill="#0066b2"/>
    <path id="Path_129" data-name="Path 129" d="M288.574,173.255h4.106l-3.58-17.176h-3.594a2.056,2.056,0,0,0-2.065,1.279l-6.669,15.9h4.662l.932-2.551h5.685Zm-4.921-6.075L286,160.751l1.322,6.429Z" transform="translate(-237.875 -155.772)" fill="#0066b2"/>
    <path id="Path_130" data-name="Path 130" d="M272.537,160.1l.638-3.689a12.907,12.907,0,0,0-4.021-.749c-2.219,0-7.49.97-7.49,5.686,0,4.438,6.186,4.493,6.186,6.823s-5.548,1.914-7.38.444l-.664,3.856a12.521,12.521,0,0,0,5.048.971c3.051,0,7.656-1.581,7.656-5.88,0-4.466-6.242-4.883-6.242-6.824S270.625,159.041,272.537,160.1Z" transform="translate(-233.291 -155.658)" fill="#0066b2"/>
  </g>
  <path id="Path_131" data-name="Path 131" d="M234.233,165.35l-1.5-7.724a1.913,1.913,0,0,0-2.121-1.547h-7.048l-.082.29a17.345,17.345,0,0,1,6.638,3.332A13.387,13.387,0,0,1,234.233,165.35Z" transform="translate(-223.477 -155.772)" fill="#f9a533"/>
</svg>
