<svg xmlns="http://www.w3.org/2000/svg" width="33.148" height="33.148" viewBox="0 0 33.148 33.148">
  <g id="Group_282" data-name="Group 282" transform="translate(-67.819 -3040.584)">
    <path id="Path_24" data-name="Path 24" d="M548.958,236.1a16.574,16.574,0,1,1,16.574-16.574A16.592,16.592,0,0,1,548.958,236.1Z" transform="translate(-464.565 2837.637)" fill="#fff"/>
    <g id="Group_38" data-name="Group 38" transform="translate(74.673 3049.203)">
      <path id="Path_26" data-name="Path 26" d="M562.916,219.046a7.925,7.925,0,0,1-1.951.557c.314-.053.778-.622.963-.852a3.6,3.6,0,0,0,.65-1.183c.017-.034.03-.077,0-.1a.109.109,0,0,0-.1.008,9.956,9.956,0,0,1-2.318.887.154.154,0,0,1-.16-.043,1.871,1.871,0,0,0-.2-.207,4.1,4.1,0,0,0-1.123-.688,3.911,3.911,0,0,0-1.722-.278,4.116,4.116,0,0,0-1.634.462,4.219,4.219,0,0,0-1.318,1.077,4.06,4.06,0,0,0-.787,1.576,4.267,4.267,0,0,0-.041,1.665c.012.093,0,.106-.08.093a12.379,12.379,0,0,1-7.965-4.054c-.093-.106-.143-.106-.22.009a4.038,4.038,0,0,0,.689,4.772c.156.148.316.3.49.431a4.046,4.046,0,0,1-1.537-.431c-.093-.059-.14-.025-.148.08a2.4,2.4,0,0,0,.025.457,4.084,4.084,0,0,0,2.517,3.256,2.365,2.365,0,0,0,.511.156,4.549,4.549,0,0,1-1.507.047c-.11-.021-.152.034-.11.14A4.24,4.24,0,0,0,549,229.532c.144.025.287.025.431.059-.009.013-.017.013-.026.026a5.019,5.019,0,0,1-2.162,1.147,7.751,7.751,0,0,1-3.285.42c-.177-.026-.214-.024-.262,0s-.006.072.051.118c.223.148.452.279.684.406a10.852,10.852,0,0,0,2.2.879,11.7,11.7,0,0,0,11.355-2.655,11.916,11.916,0,0,0,3.143-8.693c0-.125.148-.194.236-.26a7.649,7.649,0,0,0,1.538-1.607.466.466,0,0,0,.095-.308v-.017C562.988,218.995,562.995,219.01,562.916,219.046Z" transform="translate(-543.67 -217.139)" fill="#656565"/>
    </g>
  </g>
</svg>
