<svg xmlns="http://www.w3.org/2000/svg" width="33.148" height="33.149" viewBox="0 0 33.148 33.149">
  <g id="Group_280" data-name="Group 280" transform="translate(-266.059 -3041.66)">
    <g id="Group_57" data-name="Group 57" transform="translate(266.059 3041.66)">
      <path id="Path_38" data-name="Path 38" d="M712.4,171.867a16.574,16.574,0,1,1,16.574-16.574A16.593,16.593,0,0,1,712.4,171.867Z" transform="translate(-695.825 -138.718)" fill="#fff"/>
    </g>
    <g id="Group_59" data-name="Group 59" transform="translate(273.004 3051.464)">
      <g id="Group_58" data-name="Group 58" transform="translate(0 0)">
        <path id="Path_39" data-name="Path 39" d="M726.814,159.119a4.256,4.256,0,0,0-4.256-4.256h-11.04a4.256,4.256,0,0,0-4.256,4.256v5.174a4.256,4.256,0,0,0,4.256,4.256h11.04a4.256,4.256,0,0,0,4.256-4.256Zm-6.965,2.848-4.4,2.415c-.191.1-.364-.035-.364-.253v-4.957c0-.22.177-.358.369-.25l4.433,2.542A.289.289,0,0,1,719.85,161.967Z" transform="translate(-707.262 -154.863)" fill="#656565"/>
      </g>
    </g>
  </g>
</svg>
