<svg id="_009-delivery-insurance" data-name="009-delivery-insurance" xmlns="http://www.w3.org/2000/svg" width="45.081" height="40.541" viewBox="0 0 45.081 40.541">
  <path id="Path_64" data-name="Path 64" d="M44.69,4.385,36.853.209a.738.738,0,0,0-.7,0L28.53,4.389a.739.739,0,0,0-.384.648V6.1H8.518A2.226,2.226,0,0,0,6.634,7.128L.126,17.337l-.01.016,0,.007a.73.73,0,0,0-.042.079l0,.009a.671.671,0,0,0-.034.092l0,.009a.808.808,0,0,0-.018.084c0,.007,0,.014,0,.021A.808.808,0,0,0,0,17.75V38.431a2.236,2.236,0,0,0,2.234,2.233H35.119a2.236,2.236,0,0,0,2.234-2.233V21.36l.61-.264a11.621,11.621,0,0,0,7.119-10.713V5.037a.739.739,0,0,0-.392-.652ZM30.153,17.011H19.415V7.572h8.731v2.92a11.6,11.6,0,0,0,2.006,6.518ZM7.878,7.923a.756.756,0,0,1,.639-.35h9.42v9.439H2.085ZM22.949,39.187H14.4V24.236l8.547,3.583Zm12.169,0H24.427V27.327a.739.739,0,0,0-.453-.681l-10.024-4.2a.738.738,0,0,0-1.024.681V39.187H2.234a.757.757,0,0,1-.757-.756V18.489H31.338a11.669,11.669,0,0,0,3.788,2.661l.749.327V38.431a.757.757,0,0,1-.756.756Zm8.485-28.8a10.146,10.146,0,0,1-6.22,9.353l-.005,0-.768.331a.735.735,0,0,0-.2.028l-.7-.3a10.166,10.166,0,0,1-6.094-9.3V5.475L36.511,1.7,43.6,5.481Zm0,0" transform="translate(0 -0.122)" fill="#fff"/>
  <path id="Path_65" data-name="Path 65" d="M301.257,73.163a.739.739,0,0,0-1.044,1.044l3.055,3.055a.738.738,0,0,0,1.032.012l5.386-5.144a.739.739,0,0,0-1.021-1.068L303.8,75.708Zm0,0" transform="translate(-268.342 -63.394)" fill="#fff"/>
</svg>
