<svg id="Group_250" data-name="Group 250" xmlns="http://www.w3.org/2000/svg" width="54.879" height="32.847" viewBox="0 0 54.879 32.847">
  <path id="Path_132" data-name="Path 132" d="M432.313,178.182l.847-.022L434,178.1l.82-.1.814-.145.792-.182.782-.222.764-.26.748-.294.731-.332.71-.36.687-.4.671-.426.643-.459.62-.488.6-.515.571-.548.548-.571.515-.6.488-.619.46-.643.427-.67.4-.688.36-.709.333-.73.293-.749.26-.765.223-.78.182-.793.144-.814.105-.82.062-.836.021-.848-.021-.842-.062-.831-.105-.82-.144-.8-.182-.792-.223-.776-.26-.764-.293-.743-.333-.725-.36-.71-.4-.681-.427-.67-.46-.643-.488-.615-.515-.6-.548-.571-.571-.543-.6-.515-.62-.488-.643-.459-.671-.427-.687-.393-.71-.36-.731-.334-.748-.293-.764-.26-.782-.222-.792-.183-.814-.144-.82-.105-.837-.062-.847-.022-.843.022-.836.062-.819.105-.81.144-.792.183-.78.222-.76.26-.748.293-.726.334-.7.36-.687.393-.665.427-.642.459-.621.488-.593.515-.571.543-.542.571-.516.6-.487.615-.454.643-.427.67-.394.681-.365.71-.327.725-.294.743-.254.764-.222.776-.182.792-.144.8-.1.82-.062.831-.022.842.022.848.062.836.1.82.144.814.182.793.222.78.254.765.294.749.327.73.365.709.394.688.427.67.454.643.487.619.516.6.542.571.571.548.593.515.621.488.642.459.665.426.687.4.7.36.726.332.748.294.76.26.78.222.792.182.81.145.819.1.836.061.843.022Z" transform="translate(-393.886 -145.335)" fill="#fbb231" fill-rule="evenodd"/>
  <path id="Path_133" data-name="Path 133" d="M402.186,178.182l.841-.022.837-.061.821-.1.809-.145.792-.182.78-.222.76-.26.748-.294.726-.332.7-.36.687-.4.664-.426.644-.459.62-.488.592-.515.571-.548.543-.571.515-.6.487-.619.454-.643.428-.67.393-.688.365-.709.326-.73.294-.749.254-.765.222-.78.183-.793.144-.814.105-.82.06-.836.023-.848-.023-.842-.06-.831-.105-.82-.144-.8-.183-.792-.222-.776-.254-.764-.294-.743-.326-.725-.365-.71-.393-.681-.428-.67-.454-.643-.487-.615-.515-.6-.543-.571-.571-.543-.592-.515L412,148.6l-.644-.459-.664-.427-.687-.393-.7-.36-.726-.334-.748-.293-.76-.26-.78-.222-.792-.183-.809-.144-.821-.105-.837-.062-.841-.022-.849.022-.836.062-.82.105-.815.144-.792.183-.781.222-.764.26-.747.293-.731.334-.709.36-.687.393-.671.427-.643.459-.62.488-.6.515-.57.543-.549.571-.515.6-.487.615-.46.643-.426.67-.4.681-.359.71-.333.725-.294.743-.26.764-.222.776-.183.792-.144.8-.106.82-.061.831-.022.842.022.848.061.836.106.82.144.814.183.793.222.78.26.765.294.749.333.73.359.709.4.688.426.67.46.643.487.619.515.6.549.571.57.548.6.515.62.488.643.459.671.426.687.4.709.36.731.332.747.294.764.26.781.222.792.182.815.145.82.1.836.061.849.022Z" transform="translate(-385.731 -145.335)" fill="#ec1c2e" fill-rule="evenodd"/>
  <path id="Path_134" data-name="Path 134" d="M420.695,153.636h8.725v-.892h-7.972l-.753.892Z" transform="translate(-395.177 -147.337)" fill="#fbb231" fill-rule="evenodd"/>
  <path id="Path_135" data-name="Path 135" d="M418.9,156.353h10.033v-.892h-9.507l-.526.892Z" transform="translate(-394.693 -148.071)" fill="#fbb231" fill-rule="evenodd"/>
  <path id="Path_136" data-name="Path 136" d="M417.567,159.064h11.008v-.892h-10.62l-.388.892Z" transform="translate(-394.332 -148.803)" fill="#fbb231" fill-rule="evenodd"/>
  <path id="Path_137" data-name="Path 137" d="M416.648,161.781h11.679v-.892h-11.4l-.277.892Z" transform="translate(-394.083 -149.537)" fill="#fbb231" fill-rule="evenodd"/>
  <path id="Path_138" data-name="Path 138" d="M417.077,174.914H428.4v-.892H416.8l.278.892Z" transform="translate(-394.124 -153.085)" fill="#fbb231" fill-rule="evenodd"/>
  <path id="Path_139" data-name="Path 139" d="M418.172,177.631h10.482v-.892h-10.9l.416.892Z" transform="translate(-394.383 -153.819)" fill="#fbb231" fill-rule="evenodd"/>
  <path id="Path_140" data-name="Path 140" d="M419.727,180.341h9.308v-.892h-9.866l.558.892Z" transform="translate(-394.764 -154.551)" fill="#fbb231" fill-rule="evenodd"/>
  <path id="Path_141" data-name="Path 141" d="M421.863,183.056h7.689v-.9h-8.47l.781.9Z" transform="translate(-395.281 -155.283)" fill="#fbb231" fill-rule="evenodd"/>
  <path id="Path_142" data-name="Path 142" d="M416.11,164.491h12.072V163.6h-11.9l-.171.892Z" transform="translate(-393.938 -150.269)" fill="#fbb231" fill-rule="evenodd"/>
  <path id="Path_143" data-name="Path 143" d="M426.19,172.2h4.6v-.893h-4.437l-.167.893Z" transform="translate(-396.661 -152.353)" fill="#fbb231" fill-rule="evenodd"/>
  <path id="Path_144" data-name="Path 144" d="M426.691,169.491h4.238v-.9h-4.072l-.166.9Z" transform="translate(-396.797 -151.619)" fill="#fbb231" fill-rule="evenodd"/>
  <path id="Path_145" data-name="Path 145" d="M415.692,168.594h1.2v.9h-1.141l-.056-.9Z" transform="translate(-393.825 -151.619)" fill="#fbb231" fill-rule="evenodd"/>
  <path id="Path_146" data-name="Path 146" d="M410.909,166.6l-.077-.005-.077-.011-.072-.011-.071-.011-.067-.011-.072-.011-.071-.011-.079-.012-.077-.01-.089-.006-.1-.006-.1-.006h-.117l-.127.006-.144.012-.16.01-.111.017-.105.017-.095.033-.083.033-.078.039-.071.044-.056.056-.051.049-.032.061-.027.061-.011.066v.067l.016.072.022.072.044.072.056.072.111.1.134.083.154.072.166.061.177.056.182.061.183.067.177.071.167.094.155.116.138.139.117.171.089.21.056.249.021.3-.021.349-.039.26-.067.227-.089.211-.11.182-.127.161-.145.138-.155.122-.171.106-.178.083-.182.072-.189.056-.194.044-.189.034-.182.016-.183.011-.172,0h-.239l-.221,0H407.8l-.182-.005-.166-.006-.149-.011-.133-.011-.128-.016-.117-.011-.1-.022-.106-.017-.094-.027-.095-.022-.088-.034-.089-.032-.094-.033.249-1.224.05.011.06.017.078.021.095.023.1.022.111.022.122.027.132.022.139.022.144.022.149.016.155.017.16.005.162.006h.159l.161-.006.161-.033.128-.045.1-.06.078-.078.055-.078.045-.089.028-.088.021-.083.012-.161-.05-.139-.1-.111-.138-.094-.166-.083-.194-.083-.216-.078-.216-.088-.222-.1-.21-.117-.194-.144-.178-.172-.138-.211-.1-.249-.05-.3.006-.355.028-.216.04-.206.055-.188.066-.177.089-.166.1-.144.117-.139.139-.121.161-.105.176-.089.2-.083.222-.061.25-.051.272-.038.3-.022.328-.006h.2l.189.006.172.006.155.005.139.011.127.011.111.011.1.011.094.011.078.017.071.011.067.011.055.011.05.006.05.011.044.006-.283,1.251Z" transform="translate(-391.276 -150.702)" fill="#fff" fill-rule="evenodd"/>
  <path id="Path_147" data-name="Path 147" d="M410.909,166.6h0l-.077-.005-.077-.011-.072-.011-.071-.011-.067-.011-.072-.011-.071-.011-.079-.012-.077-.01-.089-.006-.1-.006-.1-.006h-.117l-.127.006-.144.012-.16.01h0l-.111.017-.105.017-.095.033-.083.033-.078.039-.071.044-.056.056-.051.049-.032.061-.027.061-.011.066v.067l.016.072.022.072.044.072.056.072h0l.111.1.134.083.154.072.166.061.177.056.182.061.183.067.177.071.167.094.155.116.138.139.117.171.089.21.056.249.021.3-.021.349h0l-.039.26-.067.227-.089.211-.11.182-.127.161-.145.138-.155.122-.171.106-.178.083-.182.072-.189.056-.194.044-.189.034-.182.016-.183.011-.172,0h-.239l-.221,0H407.8l-.182-.005-.166-.006-.149-.011-.133-.011-.128-.016-.117-.011-.1-.022-.106-.017-.094-.027-.095-.022-.088-.034-.089-.032-.094-.033.249-1.224h0l.05.011.06.017.078.021.095.023.1.022.111.022.122.027.132.022.139.022.144.022.149.016.155.017.16.005.162.006h.159l.161-.006h0l.161-.033.128-.045.1-.06.078-.078.055-.078.045-.089.028-.088.021-.083h0l.012-.161-.05-.139-.1-.111-.138-.094-.166-.083-.194-.083-.216-.078-.216-.088-.222-.1-.21-.117-.194-.144-.178-.172-.138-.211-.1-.249-.05-.3.006-.355h0l.028-.216.04-.206.055-.188.066-.177.089-.166.1-.144.117-.139.139-.121.161-.105.176-.089.2-.083.222-.061.25-.051.272-.038.3-.022.328-.006h.2l.189.006.172.006.155.005.139.011.127.011.111.011.1.011.094.011.078.017.071.011.067.011.055.011.05.006.05.011.044.006-.283,1.251" transform="translate(-391.276 -150.702)" fill="none" stroke="#fff" stroke-miterlimit="2.613" stroke-width="0.216"/>
  <path id="Path_148" data-name="Path 148" d="M414.028,163.524h1.535l-.227,1.341h.925l-.2,1.252-.976-.028-.531,3.091-.006.111.027.094.056.072.072.06.1.039.111.033.122.022.133.012.122-.006.111-.011.1-.017.089-.022.072-.022.049-.016.033-.012.011,0-.193,1.031-.039.027-.039.022-.039.022-.038.022-.039.017-.045.017-.05.016-.05.017-.055.016-.056.012-.066.011-.066.011-.072.011-.084.011-.089.011-.094.011h-.421l-.222-.017-.193-.022-.177-.033-.15-.039-.128-.05-.1-.054-.094-.067-.072-.072-.056-.077-.04-.094-.027-.1-.017-.1-.005-.117v-.122l.016-.127.017-.139,1.058-6.044Z" transform="translate(-393.081 -150.249)" fill="#fff" fill-rule="evenodd"/>
  <path id="Path_149" data-name="Path 149" d="M414.028,163.524h1.535l-.227,1.341h.925l-.2,1.252-.976-.028-.531,3.091h0l-.006.111.027.094.056.072.072.06.1.039.111.033.122.022.133.012h0l.122-.006.111-.011.1-.017.089-.022.072-.022.049-.016.033-.012.011,0-.193,1.031h0l-.039.027-.039.022-.039.022-.038.022-.039.017-.045.017-.05.016-.05.017-.055.016-.056.012-.066.011-.066.011-.072.011-.084.011-.089.011-.094.011h-.421l-.222-.017-.193-.022-.177-.033-.15-.039-.128-.05-.1-.054-.094-.067-.072-.072-.056-.077-.04-.094-.027-.1-.017-.1-.005-.117v-.122l.016-.127.017-.139,1.058-6.044" transform="translate(-393.081 -150.249)" fill="none" stroke="#fff" stroke-miterlimit="2.613" stroke-width="0.216"/>
  <path id="Path_150" data-name="Path 150" d="M418.57,168.658h0l-.017.094,0,.1.011.106.022.105.039.105.045.1.06.1.066.094.078.095.083.084.089.082.1.066.1.062.111.049.11.039.111.022h0l.144.022.139.017.144.016.144.011.144.005h.15l.144-.005.15-.011.149-.022.15-.028.155-.033.149-.05.156-.061.16-.067.155-.088.16-.094-.221,1.363h0l-.089.044-.088.045-.089.032-.082.034-.083.027-.09.028-.088.021-.094.017-.1.017-.111.011-.116.011-.128.011-.144.006h-.149l-.173,0h-.183l-.271,0-.276-.028-.278-.039-.277-.067-.271-.082-.26-.106-.25-.138-.233-.161-.216-.188-.188-.227-.161-.255-.134-.294-.093-.327-.061-.372-.017-.409.028-.454h0l.022-.178.032-.205.045-.215.061-.234.084-.237.1-.239.127-.243.155-.233.177-.222.216-.21.245-.188.277-.166.321-.139.361-.1.4-.066.45-.023h0l.216.006.227.022.227.038.227.055.221.084.217.1.2.133.182.155.166.189.139.222.11.254.078.294.045.331.006.377-.039.421-.084.466-.027.338h-4.038l.254-1.092H420.8l.011-.138-.006-.133-.011-.122-.021-.11-.039-.105-.038-.1-.056-.083-.055-.077-.066-.066-.073-.056-.083-.05-.083-.045-.088-.032-.089-.022-.094-.017-.1-.011h0l-.106.006-.1.017-.094.023-.094.032-.095.044-.082.05-.084.061-.071.066-.073.077-.067.083-.06.089-.05.095-.05.1-.038.111-.033.111-.022.116-.221,1.147" transform="translate(-394.166 -150.702)" fill="none" stroke="#fff" stroke-miterlimit="2.613" stroke-width="0.216"/>
  <path id="Path_151" data-name="Path 151" d="M435.18,165.1l-.071-.038-.072-.034-.079-.039-.083-.039-.084-.033-.093-.033-.095-.033-.1-.033-.106-.027-.107-.022-.115-.022-.116-.017-.128-.011-.127-.011h-.41l-.144.011-.15.017-.154.027-.155.044-.155.061-.155.078-.156.1-.149.122-.145.144-.139.177-.132.2-.123.243-.116.277-.105.311-.088.354-.035.2-.021.194-.011.194.006.189.015.188.039.177.05.166.061.166.083.15.1.143.118.128.133.117.149.1.171.083.189.072.21.05.072.016.084.017.1.012.111.011.121.011h.266l.139-.011.144-.018.144-.027.138-.039.139-.044.138-.062.127-.072.116-.088.111-.1-.248,1.479-.034.027-.032.033-.045.039-.049.032-.061.045-.078.039-.089.039-.1.033-.128.039-.144.028-.166.022-.195.022-.215.011-.25.006-.281-.006-.311-.016-.255-.028-.255-.056-.254-.083-.255-.111-.244-.132-.233-.167-.221-.193-.205-.221-.184-.25-.154-.277-.133-.31-.1-.338-.067-.371-.023-.393.011-.432.06-.46.045-.227.049-.222.056-.216.056-.2.06-.194.072-.193.073-.183.077-.172.084-.172.082-.161.094-.155.1-.144.1-.139.11-.133.11-.122.117-.116.127-.111.128-.105.133-.094.139-.089.149-.083.149-.071.155-.067.161-.062.172-.055.17-.044.178-.039.189-.032.187-.028.2-.022.2-.01.211-.007.179.007.17.01.166.017.166.022.156.021.149.034.144.028.133.033.128.033.111.033.105.034.088.033.078.027.066.023.05.022.034.011-.278,1.534Z" transform="translate(-397.563 -150.157)" fill="#fff" fill-rule="evenodd"/>
  <path id="Path_152" data-name="Path 152" d="M435.18,165.1h0l-.071-.038-.072-.034-.079-.039-.083-.039-.084-.033-.093-.033-.095-.033-.1-.033-.106-.027-.107-.022-.115-.022-.116-.017-.128-.011-.127-.011h-.41l-.144.011-.15.017-.154.027-.155.044-.155.061-.155.078-.156.1-.149.122-.145.144-.139.177-.132.2-.123.243-.116.277-.105.311-.088.354h0l-.035.2-.021.194-.011.194.006.189.015.188.039.177.05.166.061.166.083.15.1.143.118.128.133.117.149.1.171.083.189.072.21.05h0l.072.016.084.017.1.012.111.011.121.011h.266l.139-.011.144-.018.144-.027.138-.039.139-.044.138-.062.127-.072.116-.088.111-.1-.248,1.479h0l-.034.027-.032.033-.045.039-.049.032-.061.045-.078.039-.089.039-.1.033-.128.039-.144.028-.166.022-.195.022-.215.011-.25.006-.281-.006-.311-.016h0l-.255-.028-.255-.056-.254-.083-.255-.111-.244-.132-.233-.167-.221-.193-.205-.221-.184-.25-.154-.277-.133-.31-.1-.338-.067-.371-.023-.393.011-.432.06-.46h0l.045-.227.049-.222.056-.216.056-.2.06-.194.072-.193.073-.183.077-.172.084-.172.082-.161.094-.155.1-.144.1-.139.11-.133.11-.122.117-.116.127-.111.128-.105.133-.094.139-.089.149-.083.149-.071.155-.067.161-.062.172-.055.17-.044.178-.039.189-.032.187-.028.2-.022.2-.01.211-.007h0l.179.007.17.01.166.017.166.022.156.021.149.034.144.028.133.033.128.033.111.033.105.034.088.033.078.027.066.023.05.022.034.011-.278,1.534" transform="translate(-397.563 -150.157)" fill="none" stroke="#fff" stroke-miterlimit="2.613" stroke-width="0.216"/>
  <path id="Path_153" data-name="Path 153" d="M454.082,170.808h-1.534l.111-.614v-.056l-.089.112-.094.1-.093.089-.1.078-.1.072-.1.06-.1.05-.105.05-.1.039-.105.027-.106.027-.111.016-.11.018-.105.011-.111.006h-.111l-.288-.022-.266-.061-.244-.094-.222-.127-.2-.161-.177-.187-.155-.206-.133-.232-.11-.25-.089-.259-.061-.271-.045-.283-.016-.283,0-.288.027-.283.05-.282.083-.328.1-.31.117-.283.138-.266.144-.249.167-.222.171-.2.183-.183.194-.161.2-.138.211-.122.211-.094.221-.078.221-.049.221-.033.227-.011.161,0,.155.017.144.027.133.039.128.045.111.049.111.062.1.061.088.065.083.073.072.072.067.072.055.072.05.072.045.067.032.066h0l.389-2.177h1.506l-1.252,7.246Z" transform="translate(-402.826 -150.259)" fill="#fff" fill-rule="evenodd"/>
  <path id="Path_154" data-name="Path 154" d="M454.082,170.808h-1.534l.111-.614v-.056h0l-.089.112-.094.1-.093.089-.1.078-.1.072-.1.06-.1.05-.105.05-.1.039-.105.027-.106.027-.111.016-.11.018-.105.011-.111.006h-.111l-.288-.022-.266-.061-.244-.094-.222-.127-.2-.161-.177-.187-.155-.206-.133-.232-.11-.25-.089-.259-.061-.271-.045-.283-.016-.283,0-.288.027-.283.05-.282h0l.083-.328.1-.31.117-.283.138-.266.144-.249.167-.222.171-.2.183-.183.194-.161.2-.138.211-.122.211-.094.221-.078.221-.049.221-.033.227-.011h0l.161,0,.155.017.144.027.133.039.128.045.111.049.111.062.1.061.088.065.083.073.072.072.067.072.055.072.05.072.045.067.032.066h0l.389-2.177h1.506l-1.252,7.246" transform="translate(-402.826 -150.259)" fill="none" stroke="#fff" stroke-miterlimit="2.613" stroke-width="0.216"/>
  <path id="Path_155" data-name="Path 155" d="M452.233,170.447l.155-.011.144-.033.134-.039.128-.061.116-.066.111-.084.105-.093.094-.1.083-.111.078-.122.072-.127.062-.132.055-.139.045-.144.038-.15.028-.149.027-.155.017-.161v-.151l-.005-.154-.017-.144-.022-.139-.039-.133-.045-.127-.055-.11-.067-.106-.071-.089-.084-.077-.094-.066-.1-.045-.105-.027-.115-.011-.151.011-.138.022-.128.044-.127.055-.11.072-.111.089-.094.094-.094.105-.083.121-.078.128-.073.133-.06.144-.055.149-.044.151-.045.16-.033.161-.029.244.012.266.038.271.073.261.11.228.144.182.182.122.222.044Z" transform="translate(-403.486 -151.239)" fill="#fbb231" fill-rule="evenodd"/>
  <path id="Path_156" data-name="Path 156" d="M404.04,170.037l-.222,1.23h-1.4l.039-.227.029-.2.021-.155.023-.083-.077.089-.089.089-.1.083-.117.077-.133.078-.139.066-.145.067-.149.056-.161.05-.159.04-.161.033-.165.022-.161.011-.16.005-.156-.017-.15-.022-.194-.05-.177-.056-.155-.072-.139-.083-.121-.088-.11-.1-.09-.106-.078-.11-.066-.117-.056-.123-.044-.121-.033-.122-.022-.128L399,169.92l-.011-.122v-.122l.016-.216.034-.2.056-.194.072-.189.088-.177.1-.16.116-.155.133-.139.139-.127L399.9,168l.161-.1.165-.089.177-.076.184-.062.188-.05.194-.033h.01l.028-.006.04-.005.06-.005.067-.011.077-.006.083-.011.095-.011.094-.011.095-.011.1-.006.088-.011.09-.005.082-.006.078,0h.189l.133,0,.121.006h.122l.1.005.078.005.055.006h.017l.011-.039.033-.1.027-.117.011-.1-.022-.122-.05-.112-.067-.1-.089-.083-.1-.071-.116-.051-.133-.033-.144-.011-.155-.006-.167-.005h-.171l-.177.005-.183.011-.178.016-.177.017-.171.022-.167.022-.161.028-.144.027-.133.028-.122.034-.1.032-.077.039-.062.033.394-1.335.122-.05.121-.044.134-.039.133-.028.134-.028.144-.021.144-.022.15-.011.155-.011.161-.006.166-.006h.532l.194.006.194.006.155.011.167.028.171.039.177.05.172.067.166.077.166.094.156.1.136.123.123.133.111.149.082.166.056.178.032.188v.21l-.032.222-.559,2.925Z" transform="translate(-389.314 -150.718)" fill="#fff" fill-rule="evenodd"/>
  <path id="Path_157" data-name="Path 157" d="M404.04,170.037l-.222,1.23h-1.4l.039-.227.029-.2.021-.155.023-.083h0l-.077.089-.089.089-.1.083-.117.077-.133.078-.139.066-.145.067-.149.056-.161.05-.159.04-.161.033-.165.022-.161.011-.16.005-.156-.017-.15-.022h0l-.194-.05-.177-.056-.155-.072-.139-.083-.121-.088-.11-.1-.09-.106-.078-.11-.066-.117-.056-.123-.044-.121-.033-.122-.022-.128L399,169.92l-.011-.122v-.122h0l.016-.216.034-.2.056-.194.072-.189.088-.177.1-.16.116-.155.133-.139.139-.127L399.9,168l.161-.1.165-.089.177-.076.184-.062.188-.05.194-.033h.01l.028-.006.04-.005.06-.005.067-.011.077-.006.083-.011.095-.011.094-.011.095-.011.1-.006.088-.011.09-.005.082-.006.078,0h.189l.133,0,.121.006h.122l.1.005.078.005.055.006h.017l.011-.039.033-.1.027-.117.011-.1h0l-.022-.122-.05-.112-.067-.1-.089-.083-.1-.071-.116-.051-.133-.033-.144-.011h0l-.155-.006-.167-.005h-.171l-.177.005-.183.011-.178.016-.177.017-.171.022-.167.022-.161.028-.144.027-.133.028-.122.034-.1.032-.077.039-.062.033.394-1.335h0l.122-.05.121-.044.134-.039.133-.028.134-.028.144-.021.144-.022.15-.011.155-.011.161-.006.166-.006h.532l.194.006.194.006h0l.155.011.167.028.171.039.177.05.172.067.166.077.166.094.156.1.136.123.123.133.111.149.082.166.056.178.032.188v.21l-.032.222-.559,2.925" transform="translate(-389.314 -150.718)" fill="none" stroke="#fff" stroke-miterlimit="2.613" stroke-width="0.216"/>
  <path id="Path_158" data-name="Path 158" d="M403.342,169.786l-.006-.027-.022-.027-.033-.017-.055-.011-.061-.011-.072-.006h-.167l-.088.006-.094.011-.089.011-.089.012-.083.011-.078.016-.066.017-.062.016-.038.011-.045.017-.061.022-.062.027L402,169.9l-.072.039-.077.038-.072.045-.077.055-.072.055-.067.067-.06.067-.056.071-.038.078-.032.088-.018.089,0,.189.027.149.056.111.072.083.083.055.095.033.089.017.088.005.166-.005.15-.017.144-.023.128-.033.11-.039.106-.049.094-.05.084-.061.072-.056.065-.066.056-.061.045-.067.038-.067.035-.066.027-.061.015-.061.045-.16.038-.183.033-.177.028-.145Z" transform="translate(-389.951 -151.914)" fill="#ec1c2e" fill-rule="evenodd"/>
  <path id="Path_159" data-name="Path 159" d="M389.378,170.8h-1.506l1.258-7.273h2.62l.25,4.315,1.812-4.315h2.737l-1.286,7.273h-1.507l.953-5.434h-.06l-2.256,5.434h-1.7l-.011-.227-.039-.6-.05-.858-.056-.987-.056-.991-.05-.869-.039-.632-.011-.266H390.3l-.921,5.434Z" transform="translate(-386.309 -150.249)" fill="#fff" fill-rule="evenodd"/>
  <path id="Path_160" data-name="Path 160" d="M389.378,170.8h-1.506l1.258-7.273h2.62l.25,4.315,1.812-4.315h2.737l-1.286,7.273h-1.507l.953-5.434h-.06l-2.256,5.434h-1.7l-.011-.227-.039-.6-.05-.858-.056-.987-.056-.991-.05-.869-.039-.632-.011-.266H390.3l-.921,5.434" transform="translate(-386.309 -150.249)" fill="none" stroke="#fff" stroke-miterlimit="2.613" stroke-width="0.216"/>
  <path id="Path_161" data-name="Path 161" d="M441.723,170.037l-.228,1.23H440.1l.011-.227.006-.2v-.149l.011-.066-.071.083-.084.083-.1.077-.111.078-.115.071-.134.066-.139.067-.138.055-.15.044-.155.044-.154.029-.155.022-.161.011-.154.005-.15-.017-.15-.022-.2-.05-.176-.056-.156-.072-.145-.083-.121-.088-.106-.1-.088-.106-.077-.11-.067-.117-.05-.123-.044-.121-.027-.122-.024-.128-.015-.128-.012-.122v-.122l.012-.216.033-.2.049-.194.072-.189.083-.177.106-.16.116-.155.128-.139.144-.127.149-.117.161-.1.172-.089.171-.076.182-.062.183-.05.189-.033h.011l.027-.006.04-.005.055-.005.072-.011.077-.006.084-.011.088-.011.1-.011.1-.011.094-.006.094-.011.088-.005.077-.006.078,0h.194l.133,0,.127.006h.122l.106.005.088.005.05.006h.023l.011-.039.016-.1.016-.117.011-.1-.021-.122-.044-.112-.072-.1-.084-.083-.1-.071-.116-.051-.122-.033-.134-.011-.155-.006-.165-.005h-.172l-.178.005-.182.011-.178.016-.177.017-.172.022-.166.022-.16.028-.145.027-.133.028-.122.034-.1.032-.079.039-.06.033.388-1.335.121-.05.128-.044.127-.039.132-.028.139-.028.139-.021.143-.022.151-.011.154-.011.161-.006.161-.006h.521l.188.006.188.006.155.011.166.028.171.039.178.05.172.067.171.077.166.094.155.1.139.123.126.133.111.149.084.166.061.178.04.188v.21l-.028.222-.581,2.925Z" transform="translate(-399.501 -150.718)" fill="#fff" fill-rule="evenodd"/>
  <path id="Path_162" data-name="Path 162" d="M443.257,173.072l.032-.033.227-1.23-.067-.011-.227,1.231.034-.034v.078l.027-.006.006-.027-.032.033Z" transform="translate(-401.263 -152.484)" fill="#fff" fill-rule="evenodd"/>
  <path id="Path_163" data-name="Path 163" d="M441.317,173.475l.033.039h1.391v-.078H441.35l.033.039h-.067l-.005.039h.039l-.033-.039Z" transform="translate(-400.746 -152.927)" fill="#fff" fill-rule="evenodd"/>
  <path id="Path_164" data-name="Path 164" d="M441.408,172.623l-.051-.044-.022.089-.006.149v.2l-.01.227h.067l.011-.227.011-.2-.006-.149v-.046l-.05-.044.056.044Z" transform="translate(-400.748 -152.695)" fill="#fff" fill-rule="evenodd"/>
  <path id="Path_165" data-name="Path 165" d="M438.487,173.333h0l.155.022.15.016.154,0,.161-.011.16-.022.155-.028.156-.043.154-.045.139-.056.144-.066.134-.066.115-.078.117-.078.1-.077.089-.089.072-.084-.056-.044-.072.083-.078.078-.1.078-.1.078-.116.066-.133.067-.133.066-.139.055-.144.044-.155.045-.156.027-.149.021-.161.012-.154,0-.15-.017-.144-.021h0l-.011.066Z" transform="translate(-399.983 -152.695)" fill="#fff" fill-rule="evenodd"/>
  <path id="Path_166" data-name="Path 166" d="M436.65,171.311h0l0,.122.011.122.017.133.022.128.027.122.045.127.05.127.072.117.077.117.089.1.111.105.127.089.144.089.161.071.182.056.2.05.011-.066-.2-.05-.171-.056-.15-.071-.144-.078-.116-.088-.1-.1-.088-.105-.078-.106-.06-.116-.05-.116-.045-.115-.027-.123-.022-.128-.017-.122-.011-.122.006-.122h-.077Z" transform="translate(-399.487 -152.353)" fill="#fff" fill-rule="evenodd"/>
  <path id="Path_167" data-name="Path 167" d="M438.639,168.4h0l-.193.033-.188.05-.184.061-.177.078-.172.088-.165.111-.15.117-.144.133-.133.138-.117.155-.111.166-.083.183-.071.188-.05.2-.034.21-.016.216h.077l.006-.216.033-.2.05-.188.072-.189.083-.172.1-.155.117-.155.121-.138.144-.122.15-.117.154-.1.174-.089.165-.077.183-.061.177-.05.183-.033h0V168.4Z" transform="translate(-399.487 -151.565)" fill="#fff" fill-rule="evenodd"/>
  <path id="Path_168" data-name="Path 168" d="M440.516,168.237h-.061l-.078.012-.077.006-.088,0-.094.011-.094.006-.1.011-.1.011-.088.012-.084.011-.077,0-.072.012-.055,0-.044.005-.022.006h-.011v.067h.011l.033-.006.033,0,.055-.006.072-.011.077-.006.084-.011.088-.011.1-.011.1-.011.094,0,.094-.012.088,0,.077-.006h.139v-.078Z" transform="translate(-400.223 -151.522)" fill="#fff" fill-rule="evenodd"/>
  <path id="Path_169" data-name="Path 169" d="M441.687,168.3l.033-.028H441.7l-.05-.005-.088-.005-.106-.011h-.249l-.133-.012h-.133v.078h.267l.127.011h.227l.088.006.05.006h.023l.033-.028-.033.028.028,0,.005-.033-.067-.012Z" transform="translate(-400.646 -151.522)" fill="#fff" fill-rule="evenodd"/>
  <path id="Path_170" data-name="Path 170" d="M442.019,167.835h-.006l0,.1-.018.111-.016.1-.011.038.067.012.011-.04.016-.1.016-.121.017-.1h-.071Z" transform="translate(-400.923 -151.414)" fill="#fff" fill-rule="evenodd"/>
  <path id="Path_171" data-name="Path 171" d="M441.136,167.057v.005l.128.006.116.033.111.05.094.067.077.077.067.094.045.1.022.117h.066l-.023-.127-.043-.123-.078-.1-.088-.09-.105-.077-.122-.05-.128-.032-.139-.017v.072Z" transform="translate(-400.699 -151.184)" fill="#fff" fill-rule="evenodd"/>
  <path id="Path_172" data-name="Path 172" d="M437.88,167.319l.055.033.055-.028.072-.039.1-.033.121-.032.134-.027.143-.028.161-.028.161-.021.172-.024.177-.017.178-.016.182-.011h.515l.155.005v-.067l-.155,0-.165-.012h-.172l-.178.012-.182.01-.178.017-.177.017-.172.022-.171.021-.161.028-.143.028-.134.028-.122.032-.1.034-.083.038-.066.039.055.033-.067-.011Z" transform="translate(-399.819 -151.18)" fill="#fff" fill-rule="evenodd"/>
  <path id="Path_173" data-name="Path 173" d="M438.29,165.58l-.023.028-.387,1.335.067.011.388-1.336-.023.029-.021-.067-.017.006-.006.022.023-.028Z" transform="translate(-399.819 -150.805)" fill="#fff" fill-rule="evenodd"/>
  <path id="Path_174" data-name="Path 174" d="M440.907,165.226h0l-.188-.011-.188-.006h-.521l-.161.011-.161.006-.154.011-.151.01-.149.022-.138.022-.139.028-.134.028-.132.039-.127.044-.122.05.021.067.123-.05.127-.044.122-.04.134-.027.139-.028.137-.022.138-.022.151-.011.154-.011.161-.005h.682l.188.005h.188v-.066Z" transform="translate(-399.971 -150.704)" fill="#fff" fill-rule="evenodd"/>
  <path id="Path_175" data-name="Path 175" d="M443.72,167.11h0l.027-.227v-.21l-.038-.195-.062-.182-.088-.171-.112-.155-.133-.138-.138-.122-.161-.106-.166-.1-.177-.078-.172-.067-.182-.049-.173-.039-.171-.027-.155-.011v.066l.155.011.16.028.172.038.171.05.173.066.166.078.166.088.149.105.139.122.122.128.11.143.077.162.061.171.039.182v.21l-.028.217h0l.067.011Z" transform="translate(-400.884 -150.711)" fill="#fff" fill-rule="evenodd"/>
  <path id="Path_176" data-name="Path 176" d="M443.6,170.725h0l.582-2.925-.067-.011-.582,2.925h0l.067.011Z" transform="translate(-401.347 -151.402)" fill="#fff" fill-rule="evenodd"/>
  <path id="Path_177" data-name="Path 177" d="M441.02,169.784l-.011-.033-.021-.027-.04-.017-.055-.016-.061-.006-.072-.006h-.083l-.083.006-.089.011-.089.011-.088.011-.084.011-.081.017-.073.011-.072.017-.055.011-.038.006-.045.017-.055.017-.062.022-.072.032-.066.034-.078.039-.072.049-.073.05-.072.061-.06.06-.061.073-.05.077-.039.083-.032.089-.016.094-.006.189.026.149.046.111.066.083.083.055.095.033.094.017.094.005.166-.005.154-.017.145-.028.128-.038.121-.045.105-.05.1-.056.088-.066.078-.061.065-.072.062-.067.05-.072.038-.066.028-.067.022-.066.016-.061.022-.155.028-.16.021-.155.011-.139Z" transform="translate(-400.139 -151.912)" fill="#fbb231" fill-rule="evenodd"/>
  <path id="Path_178" data-name="Path 178" d="M457.379,172.174l.013-.128.042-.15.078-.133.094-.116.117-.094.134-.067.144-.045.154-.016.156.016.144.045.133.067.117.094.094.116.077.133.044.15.012.128h-.167l-.005-.1-.034-.122-.055-.11-.072-.1-.088-.077-.105-.055-.122-.039-.128-.011-.127.011-.122.039-.105.055-.089.077-.072.1-.055.11-.033.122-.011.1Z" transform="translate(-405.087 -152.384)" fill="#fff" fill-rule="evenodd"/>
  <path id="Path_179" data-name="Path 179" d="M458.063,172.328V172h.3l.067.005.061.011.044.017.039.022.028.034.022.033.011.038.006.039-.006.049-.011.039-.016.033-.011.012h-.233l.022-.006.04-.005.033-.011.028-.011.022-.016.011-.017.01-.027v-.039l-.006-.028-.011-.022-.016-.011-.017-.011-.028-.005-.027,0H458.2v.216Z" transform="translate(-405.272 -152.538)" fill="#fff" fill-rule="evenodd"/>
  <path id="Path_180" data-name="Path 180" d="M457.378,172.451l0,.032.017.161.042.149.078.133.094.111.117.093.134.073.144.044.154.017.156-.017.144-.044.133-.073.117-.093.094-.111.077-.133.044-.149.016-.161,0-.032h-.167l.006.032-.011.133-.034.122-.055.105-.072.093-.088.078-.105.06-.122.039-.128.011-.127-.011-.122-.039-.105-.06-.09-.078-.072-.093-.055-.105-.033-.122-.011-.133v-.032Z" transform="translate(-405.086 -152.661)" fill="#fff" fill-rule="evenodd"/>
  <path id="Path_181" data-name="Path 181" d="M458.063,172.451v.337h.139v-.277h.138l.166.277h.112l-.166-.277h.039l.038-.012.034-.011.028-.022.011-.016h-.233l-.027,0H458.2v0Z" transform="translate(-405.272 -152.661)" fill="#fff" fill-rule="evenodd"/>
  <path id="Path_182" data-name="Path 182" d="M457.373,172.207h0l.018-.161.042-.15.078-.133.094-.116.117-.093.134-.067.144-.045.155-.016h0l.155.016.144.045.134.067.117.093.094.116.077.133.044.15.016.161h0l-.016.161-.044.149-.077.134-.094.111-.117.093-.134.073-.144.044-.155.017h0l-.155-.017-.144-.044-.134-.073-.117-.093-.094-.111-.078-.134-.042-.149-.018-.161m.643.305h-.139v-.671h.3l.068.005.061.011.044.017.039.022.028.034.022.034.011.038.006.039h0l-.006.05-.011.039-.017.034-.022.028-.028.022-.034.011-.039.012h-.039l.166.277h-.112l-.166-.277h-.138v.277m.138-.333h0l.05-.012.039-.005.033-.011.028-.011.023-.017.011-.018.01-.026v-.039h0l-.005-.028-.012-.023-.015-.01-.017-.012-.028-.005-.027-.005h-.227v.221h.138m0,.67h0l.128-.011.122-.039.106-.06.088-.079.072-.093.055-.106.034-.122.011-.133h0l-.011-.133-.034-.123-.055-.11-.072-.095-.088-.077-.106-.055-.122-.039-.128-.011h0l-.127.011-.122.039-.105.055-.09.077-.072.095-.055.11-.034.123-.011.133h0l.011.133.034.122.055.106.072.093.09.079.105.06.122.039.127.011" transform="translate(-405.085 -152.384)" fill="none" stroke="#fff" stroke-miterlimit="2.613" stroke-width="0.216"/>
  <path id="Path_183" data-name="Path 183" d="M444.151,171.271h1.563l.559-3.152.022-.121.034-.123.033-.122.045-.122.055-.122.066-.117.072-.111.089-.105.1-.094.11-.089.128-.084.144-.066.161-.055.178-.045.193-.033.216-.012h.139l.249-1.423-.155.011-.149.017-.139.027-.133.039-.122.044-.116.057-.111.06-.105.066-.1.078-.095.077-.088.089-.088.088-.084.094-.083.1-.083.1-.077.111.166-1h-1.557l-1.035,5.933Z" transform="translate(-401.513 -150.723)" fill="#fff" fill-rule="evenodd"/>
  <path id="Path_184" data-name="Path 184" d="M444.151,171.271h1.563l.559-3.152h0l.022-.121.034-.123.033-.122.045-.122.055-.122.066-.117.072-.111.089-.105.1-.094.11-.089.128-.084.144-.066.161-.055.178-.045.193-.033.216-.012h.139l.249-1.423h0l-.155.011-.149.017-.139.027-.133.039-.122.044-.116.057-.111.06-.105.066-.1.078-.095.077-.088.089-.088.088-.084.094-.083.1-.083.1-.077.111.166-1h-1.557l-1.035,5.933h0" transform="translate(-401.513 -150.723)" fill="none" stroke="#fff" stroke-miterlimit="2.613" stroke-width="0.216"/>
  <path id="Path_185" data-name="Path 185" d="M424.05,171.271h1.589l.532-3.152.022-.121.027-.117.027-.116.039-.111.044-.111.056-.105.066-.1.078-.094.089-.084.1-.082.123-.067.132-.061.155-.051.172-.043.189-.028.215-.016h.017l.022.006.027.005h.028l.027.005.023.006.015.006h.006l.006-.022.016-.067.022-.1.028-.122.038-.144.039-.155.05-.155.049-.156.045-.1.055-.106.055-.1.055-.094.05-.083.039-.067.028-.039.011-.016h0l-.023-.006-.027-.006-.04-.006h-.038l-.045,0-.039-.006H428.2l-.172.011-.155.017-.144.027-.132.034-.128.044-.117.056-.106.055-.1.066-.093.073-.089.083-.083.083-.083.093-.083.1-.077.106-.083.11-.084.111.2-1h-1.59l-1.036,5.933Z" transform="translate(-396.083 -150.723)" fill="#fff" fill-rule="evenodd"/>
  <path id="Path_186" data-name="Path 186" d="M424.05,171.271h1.589l.532-3.152h0l.022-.121.027-.117.027-.116.039-.111.044-.111.056-.105.066-.1.078-.094.089-.084.1-.082.123-.067.132-.061.155-.051.172-.043.189-.028.215-.016h.017l.022.006.027.005h.028l.027.005.023.006.015.006h.006l.006-.022.016-.067.022-.1.028-.122.038-.144.039-.155.05-.155.049-.156h0l.045-.1.055-.106.055-.1.055-.094.05-.083.039-.067.028-.039.011-.016h0l-.023-.006-.027-.006-.04-.006h-.038l-.045,0-.039-.006H428.2l-.172.011-.155.017-.144.027-.132.034-.128.044-.117.056-.106.055-.1.066-.093.073-.089.083-.083.083-.083.093-.083.1-.077.106-.083.11-.084.111.2-1h-1.59l-1.036,5.933h0" transform="translate(-396.083 -150.723)" fill="none" stroke="#fff" stroke-miterlimit="2.613" stroke-width="0.216"/>
  <path id="Path_187" data-name="Path 187" d="M457.4,181.248v-.022l.042-.144.078-.128.094-.11.117-.089.134-.067.144-.038.154-.017.156.017.144.038.133.067.117.089.094.11.077.128.044.144v.022h-.16l-.034-.115-.055-.106-.072-.095-.088-.077-.105-.061-.122-.038-.128-.011-.127.011-.122.038-.105.061-.09.077-.072.095-.055.106-.033.115Z" transform="translate(-405.092 -154.871)" fill="#fbb231" fill-rule="evenodd"/>
  <path id="Path_188" data-name="Path 188" d="M458.063,181.4v-.193h.372l.061.011.044.01.039.022.028.029.022.034.011.038.006.05h-.111v-.028l-.006-.028-.011-.022-.016-.011-.017-.011-.028-.006-.027-.005H458.2v.11Z" transform="translate(-405.272 -155.027)" fill="#fbb231" fill-rule="evenodd"/>
  <path id="Path_189" data-name="Path 189" d="M457.373,181.6l.017-.122h.16v0l-.011.117Z" transform="translate(-405.086 -155.099)" fill="#fbb231" fill-rule="evenodd"/>
  <path id="Path_190" data-name="Path 190" d="M458.063,181.6v-.122h.139v.111h.138l.049-.01.04-.006.033-.012.028-.011.022-.016.011-.017.01-.027v-.012h.111l-.006.038-.011.034-.016.028-.022.021Z" transform="translate(-405.272 -155.099)" fill="#fbb231" fill-rule="evenodd"/>
  <path id="Path_191" data-name="Path 191" d="M459.282,181.6l-.011-.117v0h.16l.016.122Z" transform="translate(-405.598 -155.099)" fill="#fbb231" fill-rule="evenodd"/>
  <path id="Path_192" data-name="Path 192" d="M457.373,181.642v.017l.017.16.042.15.078.133.094.116.117.095.134.066.144.045.154.016.156-.016.144-.045.133-.066.117-.095.094-.116.077-.133.044-.15.016-.16v-.017h-.165v.017l-.011.133-.034.122-.055.1-.072.093-.088.079-.105.061-.122.039-.128.011-.127-.011-.122-.039-.105-.061-.09-.079-.072-.093-.055-.1-.033-.122-.011-.133v-.017Z" transform="translate(-405.086 -155.144)" fill="#fbb231" fill-rule="evenodd"/>
  <path id="Path_193" data-name="Path 193" d="M458.063,181.642v.322h.139v-.278h.138l.166.278h.112l-.166-.278h.039l.038-.01.034-.011.028-.022h-.527Z" transform="translate(-405.272 -155.144)" fill="#fbb231" fill-rule="evenodd"/>
  <path id="Path_194" data-name="Path 194" d="M422.3,167.084l-.045-.331-.078-.294-.11-.254-.139-.223-.166-.188-.182-.155-.2-.133-.217-.1-.22-.084-.228-.055-.227-.039-.228-.023-.216-.006-.45.023-.4.066-.361.1-.321.139-.277.166-.245.188-.216.21-.177.222-.155.233-.128.243-.1.239-.084.236-.061.234-.045.215-.032.206-.022.177-.028.454.018.409.061.372.093.327.134.293.161.255.188.227.216.188.232.161.25.139.26.106.271.082.277.067.278.039.276.028.272.005h.182l.173-.005h.149l.145-.006.127-.011.117-.011.11-.011.1-.017.094-.018.088-.021.089-.028.083-.027.082-.034.089-.032.088-.045.09-.045.221-1.363-.16.094-.155.088-.16.068-.156.061-.15.05-.155.033-.15.028-.149.023-.15.011-.144.006h-.15l-.144-.006-.144-.011-.144-.017-.139-.017-.144-.022-.111-.023-.11-.039-.111-.049-.1-.062-.1-.066-.09-.082-.082-.084-.077-.095-.066-.093-.06-.1-.045-.1-.039-.106-.023-.105-.01-.106,0-.093.014-.072h3.594l.028-.338.084-.466.039-.421Zm-1.5.51h-2.024l0-.005h0l.015-.077.022-.116.034-.111.039-.11.05-.1.05-.095.061-.09.066-.082.073-.077.071-.066.085-.061.082-.05.095-.045.094-.032.094-.023.1-.017.105-.006.1.011.094.017.089.023.088.032.083.045.083.05.073.055.066.066.055.077.056.082.039.095.039.106.021.11.011.122.007.134Z" transform="translate(-394.165 -150.702)" fill="#fff" fill-rule="evenodd"/>
</svg>
