<svg xmlns="http://www.w3.org/2000/svg" width="23" height="23" viewBox="0 0 23 23">
  <g id="Group_29" data-name="Group 29" transform="translate(-2137.879 -366.88)">
    <rect id="Rectangle_28" data-name="Rectangle 28" width="23" height="23" transform="translate(2137.879 366.88)" fill="none"/>
    <path id="Union_1" data-name="Union 1" d="M3.688,23.673A2.692,2.692,0,0,1,1,20.989a2.778,2.778,0,0,1,.058-.564,11.489,11.489,0,0,1,1.672-4c.01-.017.021-.035.032-.051a11.516,11.516,0,0,1,5.969-4.537A6.02,6.02,0,0,1,6.32,7.244h0V7.011a6.023,6.023,0,1,1,12.044-.145c0,.048,0,.1,0,.145q0,.122-.005.243v.1a.874.874,0,0,1-.008.116v0a.6.6,0,0,1-.007.087v.044h0v.055c0,.027-.006.053-.009.08V7.79h0l-.005.041h0l-.006.041h0l-.006.04v.011l-.034.045v.015l-.005.03v.005c-.007.043-.015.085-.023.127h0c-.025.13-.054.259-.087.386v.008l-.01.035v.008c-.041.154-.089.3-.142.454v.006L18,9.077v.01l-.011.031-.006.017-.01.024-.005.014-.01.027-.008.019-.009.022-.01.023-.017.014-.01.023-.007.018-.014.032v.007l-.015.035V9.4a6.056,6.056,0,0,1-1.925,2.438,11.516,11.516,0,0,1,5.969,4.537l.03.047a11.492,11.492,0,0,1,1.674,4,2.778,2.778,0,0,1,.058.564,2.692,2.692,0,0,1-2.693,2.685Zm-.708-2.11a.9.9,0,0,0,.708.338h17.3a.9.9,0,0,0,.708-.338.921.921,0,0,0,.208-.594.972.972,0,0,0-.02-.181,9.787,9.787,0,0,0-9.2-7.749h-.108c-.078,0-.156,0-.235,0s-.158,0-.235,0h-.108a9.787,9.787,0,0,0-9.2,7.749.972.972,0,0,0-.02.181A.921.921,0,0,0,2.98,21.563Zm9.143-10.3h.429c.081,0,.162-.01.242-.019h.027a4.25,4.25,0,1,0-.968,0h.027C11.96,11.252,12.041,11.258,12.123,11.262Z" transform="translate(2137 366.087)" fill="#d01b2b"/>
  </g>
</svg>
