<svg xmlns="http://www.w3.org/2000/svg" width="33.148" height="33.148" viewBox="0 0 33.148 33.148">
  <g id="Group_281" data-name="Group 281" transform="translate(-117.334 -3040.584)">
    <g id="Group_45" data-name="Group 45" transform="translate(117.334 3040.584)">
      <path id="Path_31" data-name="Path 31" d="M630.494,236.1a16.574,16.574,0,1,1,16.574-16.574A16.593,16.593,0,0,1,630.494,236.1Z" transform="translate(-613.92 -202.947)" fill="#fff"/>
    </g>
    <g id="Group_46" data-name="Group 46" transform="translate(129.276 3047.224)">
      <path id="Path_32" data-name="Path 32" d="M635.618,223.894V233.5a.25.25,0,0,0,.25.25h3.567a.25.25,0,0,0,.25-.25v-9.763h2.586a.25.25,0,0,0,.249-.229l.249-2.942a.251.251,0,0,0-.25-.271h-2.835v-2.087a.886.886,0,0,1,.885-.886h1.994a.25.25,0,0,0,.25-.25v-2.941a.25.25,0,0,0-.25-.25H639.2a3.578,3.578,0,0,0-3.579,3.579V220.3h-1.784a.25.25,0,0,0-.25.25v2.942a.25.25,0,0,0,.25.25h1.784Z" transform="translate(-633.584 -213.881)" fill="#656565" fill-rule="evenodd"/>
    </g>
  </g>
</svg>
